<svg width="93" height="84" viewBox="0 0 93 84" fill="none" xmlns="http://www.w3.org/2000/svg">
<circle cx="52" cy="41" r="38.5" stroke="#172B46" stroke-width="5"/>
<circle cx="75.5" cy="71.5" r="12.5" fill="#F4F4F4"/>
<path d="M85.9446 67.8345C86.0772 68.1914 85.9653 68.5894 85.6793 68.8437L83.8848 70.4601C83.9304 70.8005 83.9552 71.1492 83.9552 71.5021C83.9552 71.8549 83.9304 72.2036 83.8848 72.5441L85.6793 74.1604C85.9653 74.4147 86.0772 74.8127 85.9446 75.1696C85.7622 75.6577 85.5425 76.1254 85.2897 76.5767L85.0949 76.909C84.8214 77.3602 84.5147 77.7869 84.179 78.1889C83.9345 78.4843 83.5284 78.5827 83.1636 78.4679L80.8552 77.7417C80.2998 78.1643 79.6865 78.5171 79.0317 78.7837L78.5136 81.1262C78.4307 81.4995 78.1406 81.7949 77.7593 81.8564C77.1874 81.9508 76.5989 82 75.9979 82C75.397 82 74.8085 81.9508 74.2365 81.8564C73.8553 81.7949 73.5651 81.4995 73.4823 81.1262L72.9642 78.7837C72.3094 78.5171 71.696 78.1643 71.1407 77.7417L68.8364 78.472C68.4716 78.5868 68.0655 78.4843 67.821 78.193C67.4853 77.791 67.1786 77.3643 66.9051 76.9131L66.7103 76.5808C66.4575 76.1295 66.2378 75.6618 66.0554 75.1737C65.9228 74.8168 66.0347 74.4188 66.3207 74.1645L68.1152 72.5482C68.0696 72.2036 68.0448 71.8549 68.0448 71.5021C68.0448 71.1492 68.0696 70.8005 68.1152 70.4601L66.3207 68.8437C66.0347 68.5894 65.9228 68.1914 66.0554 67.8345C66.2378 67.3464 66.4575 66.8787 66.7103 66.4274L66.9051 66.0951C67.1786 65.6439 67.4853 65.2172 67.821 64.8152C68.0655 64.5198 68.4716 64.4214 68.8364 64.5362L71.1448 65.2624C71.7002 64.8398 72.3135 64.487 72.9683 64.2204L73.4864 61.8779C73.5693 61.5046 73.8594 61.2092 74.2407 61.1477C74.8126 61.0492 75.4011 61 76.0021 61C76.603 61 77.1915 61.0492 77.7635 61.1436C78.1447 61.2051 78.4349 61.5005 78.5177 61.8738L79.0358 64.2163C79.6906 64.4829 80.304 64.8357 80.8593 65.2583L83.1678 64.5321C83.5325 64.4173 83.9387 64.5198 84.1832 64.8111C84.5189 65.2131 84.8256 65.6398 85.0991 66.091L85.2939 66.4233C85.5467 66.8746 85.7663 67.3423 85.9487 67.8304L85.9446 67.8345ZM76.0021 74.7839C76.8814 74.7839 77.7247 74.4382 78.3465 73.8227C78.9683 73.2072 79.3176 72.3725 79.3176 71.5021C79.3176 70.6316 78.9683 69.7969 78.3465 69.1814C77.7247 68.5659 76.8814 68.2202 76.0021 68.2202C75.1227 68.2202 74.2794 68.5659 73.6576 69.1814C73.0358 69.7969 72.6865 70.6316 72.6865 71.5021C72.6865 72.3725 73.0358 73.2072 73.6576 73.8227C74.2794 74.4382 75.1227 74.7839 76.0021 74.7839Z" fill="#172B46"/>
<circle cx="14.5" cy="48.5" r="12.5" fill="#172B46" stroke="#F4F4F4" stroke-width="4"/>
<circle cx="75.5" cy="14.5" r="12.5" fill="#172B46" stroke="#F4F4F4" stroke-width="4"/>
</svg>
