<svg width="65" height="87" viewBox="0 0 65 87" fill="none" xmlns="http://www.w3.org/2000/svg">
<rect x="2.5" y="19.5" width="55" height="65" fill="#F4F4F4" stroke="#172B46" stroke-width="5"/>
<rect x="41" y="63" width="24" height="24" fill="#F4F4F4"/>
<rect x="17" y="2" width="37" height="10" fill="#F4F4F4" stroke="#172B46" stroke-width="4"/>
<line x1="37.5" y1="14" x2="37.5" y2="17" stroke="#172B46" stroke-width="5"/>
<path d="M64.9446 72.8345C65.0772 73.1914 64.9653 73.5894 64.6793 73.8437L62.8848 75.4601C62.9304 75.8005 62.9552 76.1492 62.9552 76.5021C62.9552 76.8549 62.9304 77.2036 62.8848 77.5441L64.6793 79.1604C64.9653 79.4147 65.0772 79.8127 64.9446 80.1696C64.7622 80.6577 64.5425 81.1254 64.2897 81.5767L64.0949 81.909C63.8214 82.3602 63.5147 82.7869 63.179 83.1889C62.9345 83.4843 62.5284 83.5827 62.1636 83.4679L59.8552 82.7417C59.2998 83.1643 58.6865 83.5171 58.0317 83.7837L57.5136 86.1262C57.4307 86.4995 57.1406 86.7949 56.7593 86.8564C56.1874 86.9508 55.5989 87 54.9979 87C54.397 87 53.8085 86.9508 53.2365 86.8564C52.8553 86.7949 52.5651 86.4995 52.4823 86.1262L51.9642 83.7837C51.3094 83.5171 50.696 83.1643 50.1407 82.7417L47.8364 83.472C47.4716 83.5868 47.0655 83.4843 46.821 83.193C46.4853 82.791 46.1786 82.3643 45.9051 81.9131L45.7103 81.5808C45.4575 81.1295 45.2378 80.6618 45.0554 80.1737C44.9228 79.8168 45.0347 79.4188 45.3207 79.1645L47.1152 77.5482C47.0696 77.2036 47.0448 76.8549 47.0448 76.5021C47.0448 76.1492 47.0696 75.8005 47.1152 75.4601L45.3207 73.8437C45.0347 73.5894 44.9228 73.1914 45.0554 72.8345C45.2378 72.3464 45.4575 71.8787 45.7103 71.4274L45.9051 71.0951C46.1786 70.6439 46.4853 70.2172 46.821 69.8152C47.0655 69.5198 47.4716 69.4214 47.8364 69.5362L50.1448 70.2624C50.7002 69.8398 51.3135 69.487 51.9683 69.2204L52.4864 66.8779C52.5693 66.5046 52.8594 66.2092 53.2407 66.1477C53.8126 66.0492 54.4011 66 55.0021 66C55.603 66 56.1915 66.0492 56.7635 66.1436C57.1447 66.2051 57.4349 66.5005 57.5177 66.8738L58.0358 69.2163C58.6906 69.4829 59.304 69.8357 59.8593 70.2583L62.1678 69.5321C62.5325 69.4173 62.9387 69.5198 63.1832 69.8111C63.5189 70.2131 63.8256 70.6398 64.0991 71.091L64.2939 71.4233C64.5467 71.8746 64.7663 72.3423 64.9487 72.8304L64.9446 72.8345ZM55.0021 79.7839C55.8814 79.7839 56.7247 79.4382 57.3465 78.8227C57.9683 78.2072 58.3176 77.3725 58.3176 76.5021C58.3176 75.6316 57.9683 74.7969 57.3465 74.1814C56.7247 73.5659 55.8814 73.2202 55.0021 73.2202C54.1227 73.2202 53.2794 73.5659 52.6576 74.1814C52.0358 74.7969 51.6865 75.6316 51.6865 76.5021C51.6865 77.3725 52.0358 78.2072 52.6576 78.8227C53.2794 79.4382 54.1227 79.7839 55.0021 79.7839Z" fill="#172B46"/>
</svg>
