<svg width="89" height="100" viewBox="0 0 89 100" fill="none" xmlns="http://www.w3.org/2000/svg">
<g clip-path="url(#clip0_35_8)">
<path d="M40 -0.234367C40.4844 -0.234367 40.9531 0.0312582 41.1719 0.468758L49.5312 14.3906C49.6562 14.6094 49.75 14.8281 49.75 15.0938C49.75 15.3125 49.7031 15.5781 49.5781 15.7969C49.3125 16.2344 48.875 16.5 48.3594 16.5L42.7969 16.5L42.7969 53.7969C48.9844 49.8438 59.5 47.4688 59.5 42.9219L59.5 38.75L55.3125 38.75C54.5313 38.75 53.9219 38.1406 53.9219 37.3594L53.9219 23.4375C53.9219 22.6563 54.5312 22.0469 55.3125 22.0469L69.2344 22.0469C70.0156 22.0469 70.625 22.6563 70.625 23.4375L70.625 37.3594C70.625 38.1406 70.0156 38.75 69.2344 38.75L65.0625 38.75L65.0625 42.9219C65.0625 54.7031 42.7969 55.5938 42.7969 62.4063L42.7969 78.0781C47.5781 79.3437 51.1563 83.6875 51.1563 88.8594C51.1406 95 46.1406 100 40 100C33.8594 100 28.8594 95 28.8594 88.8594C28.8594 83.6875 32.4219 79.3281 37.2188 78.0781C37.2188 71.9688 38.7031 71.2188 27.7813 66.4219C13.8594 60.1563 14.9531 57.3438 14.9531 49.4063C11.6875 48.2344 9.39062 45.1875 9.39062 41.5313C9.39062 36.9219 13.125 33.1719 17.75 33.1719C22.375 33.1719 26.1094 36.9063 26.1094 41.5313C26.1094 45.1875 23.7969 48.2344 20.5469 49.4063L20.5469 54.0625C20.5469 58.6094 31.0781 60.9844 37.25 64.9375L37.25 16.4844L31.6875 16.4844C31.1719 16.4844 30.7344 16.2188 30.4687 15.7813C30.2031 15.3438 30.25 14.7813 30.5156 14.3906L38.875 0.468758C39.0469 0.0312582 39.5156 -0.234367 40 -0.234367Z" fill="#172B46"/>
</g>
<path d="M88.8974 73.6927C89.1428 74.3555 88.9358 75.0945 88.4067 75.5669L85.0868 78.5687C85.1712 79.201 85.2172 79.8486 85.2172 80.5038C85.2172 81.159 85.1712 81.8066 85.0868 82.439L88.4067 85.4407C88.9358 85.9131 89.1428 86.6521 88.8974 87.3149C88.5601 88.2215 88.1537 89.0901 87.686 89.9281L87.3257 90.5452C86.8196 91.3833 86.2522 92.1756 85.6312 92.9223C85.1788 93.4708 84.4275 93.6536 83.7527 93.4403L79.4821 92.0918C78.4547 92.8765 77.32 93.5317 76.1086 94.027L75.1502 98.3772C74.9968 99.0705 74.4601 99.6191 73.7547 99.7333C72.6967 99.9086 71.6079 100 70.4962 100C69.3844 100 68.2957 99.9086 67.2376 99.7333C66.5322 99.6191 65.9955 99.0705 65.8422 98.3772L64.8838 94.027C63.6724 93.5317 62.5376 92.8765 61.5102 92.0918L57.2473 93.4479C56.5725 93.6613 55.8212 93.4708 55.3688 92.9299C54.7478 92.1832 54.1804 91.3909 53.6743 90.5528L53.314 89.9357C52.8463 89.0977 52.4399 88.2291 52.1026 87.3225C51.8572 86.6597 52.0642 85.9207 52.5933 85.4483L55.9132 82.4466C55.8288 81.8066 55.7828 81.159 55.7828 80.5038C55.7828 79.8486 55.8288 79.201 55.9132 78.5687L52.5933 75.5669C52.0642 75.0945 51.8572 74.3555 52.1026 73.6927C52.4399 72.7861 52.8463 71.9176 53.314 71.0795L53.6743 70.4624C54.1804 69.6243 54.7478 68.832 55.3688 68.0854C55.8212 67.5368 56.5725 67.354 57.2473 67.5673L61.5179 68.9158C62.5453 68.1311 63.68 67.4759 64.8914 66.9807L65.8498 62.6304C66.0032 61.9371 66.5399 61.3886 67.2453 61.2743C68.3033 61.0914 69.3921 61 70.5038 61C71.6156 61 72.7043 61.0914 73.7624 61.2667C74.4678 61.3809 75.0045 61.9295 75.1578 62.6228L76.1162 66.973C77.3276 67.4683 78.4624 68.1235 79.4898 68.9082L83.7604 67.5597C84.4351 67.3464 85.1865 67.5368 85.6389 68.0778C86.2599 68.8244 86.8273 69.6167 87.3333 70.4548L87.6937 71.0719C88.1614 71.9099 88.5677 72.7785 88.9051 73.6851L88.8974 73.6927ZM70.5038 86.5988C72.1306 86.5988 73.6908 85.9566 74.8411 84.8136C75.9914 83.6706 76.6376 82.1203 76.6376 80.5038C76.6376 78.8873 75.9914 77.3371 74.8411 76.194C73.6908 75.051 72.1306 74.4089 70.5038 74.4089C68.8771 74.4089 67.3169 75.051 66.1666 76.194C65.0163 77.3371 64.3701 78.8873 64.3701 80.5038C64.3701 82.1203 65.0163 83.6706 66.1666 84.8136C67.3169 85.9566 68.8771 86.5988 70.5038 86.5988Z" fill="#172B46"/>
<defs>
<clipPath id="clip0_35_8">
<rect width="100" height="80" fill="white" transform="translate(0 100) rotate(-90)"/>
</clipPath>
</defs>
</svg>
