<svg width="114" height="79" viewBox="0 0 114 79" fill="none" xmlns="http://www.w3.org/2000/svg">
<path d="M36.2644 6.58848L30.4392 8.76406C29.9757 8.93379 29.6667 9.38125 29.6667 9.875C29.6667 10.3687 29.9757 10.8162 30.4392 10.9859L36.2644 13.1615L38.4431 18.9785C38.613 19.4414 39.0611 19.75 39.5556 19.75C40.05 19.75 40.4981 19.4414 40.6681 18.9785L42.8467 13.1615L48.6719 10.9859C49.1354 10.8162 49.4444 10.3687 49.4444 9.875C49.4444 9.38125 49.1354 8.93379 48.6719 8.76406L42.8467 6.58848L40.6681 0.771484C40.4981 0.308594 40.05 0 39.5556 0C39.0611 0 38.613 0.308594 38.4431 0.771484L36.2644 6.58848ZM7.12309 61.009C4.23368 63.8943 4.23368 68.585 7.12309 71.4857L12.4693 76.8244C15.3587 79.7098 20.0559 79.7098 22.9608 76.8244L81.8769 17.9756C84.7663 15.0902 84.7663 10.3996 81.8769 7.49883L76.5307 2.17559C73.6413 -0.709766 68.9441 -0.709766 66.0392 2.17559L7.12309 61.009ZM74.8774 12.7449L58.6535 28.9461L55.0533 25.351L71.2773 9.1498L74.8774 12.7449ZM1.15885 18.0836C0.463542 18.3459 0 19.0094 0 19.75C0 20.4906 0.463542 21.1541 1.15885 21.4164L9.88889 24.6875L13.1646 33.4053C13.4273 34.0996 14.0917 34.5625 14.8333 34.5625C15.575 34.5625 16.2394 34.0996 16.5021 33.4053L19.7778 24.6875L28.5078 21.4164C29.2031 21.1541 29.6667 20.4906 29.6667 19.75C29.6667 19.0094 29.2031 18.3459 28.5078 18.0836L19.7778 14.8125L16.5021 6.09473C16.2394 5.40039 15.575 4.9375 14.8333 4.9375C14.0917 4.9375 13.4273 5.40039 13.1646 6.09473L9.88889 14.8125L1.15885 18.0836ZM55.5477 57.5836C54.8524 57.8459 54.3889 58.5094 54.3889 59.25C54.3889 59.9906 54.8524 60.6541 55.5477 60.9164L64.2778 64.1875L67.5535 72.9053C67.8161 73.5996 68.4806 74.0625 69.2222 74.0625C69.9639 74.0625 70.6283 73.5996 70.891 72.9053L74.1667 64.1875L82.8967 60.9164C83.592 60.6541 84.0556 59.9906 84.0556 59.25C84.0556 58.5094 83.592 57.8459 82.8967 57.5836L74.1667 54.3125L70.891 45.5947C70.6283 44.9004 69.9639 44.4375 69.2222 44.4375C68.4806 44.4375 67.8161 44.9004 67.5535 45.5947L64.2778 54.3125L55.5477 57.5836Z" fill="#172B46"/>
<g clip-path="url(#clip0_35_9)">
<path d="M101.5 32.5C103.394 32.5 105.211 31.7362 106.551 30.3765C107.89 29.0169 108.643 27.1728 108.643 25.25C108.643 23.3272 107.89 21.4831 106.551 20.1235C105.211 18.7638 103.394 18 101.5 18C99.6056 18 97.7888 18.7638 96.4492 20.1235C95.1097 21.4831 94.3571 23.3272 94.3571 25.25C94.3571 27.1728 95.1097 29.0169 96.4492 30.3765C97.7888 31.7362 99.6056 32.5 101.5 32.5ZM98.9498 35.2188C93.4531 35.2188 89 39.7387 89 45.3178C89 46.2467 89.7422 47 90.6574 47H112.343C113.258 47 114 46.2467 114 45.3178C114 39.7387 109.547 35.2188 104.05 35.2188H98.9498Z" fill="#172B46"/>
</g>
<defs>
<clipPath id="clip0_35_9">
<rect width="25" height="29" fill="white" transform="translate(89 18)"/>
</clipPath>
</defs>
</svg>
